<?xml version="1.0" encoding="UTF-8" standalone="no"?>
<svg
   xmlns:dc="http://purl.org/dc/elements/1.1/"
   xmlns:cc="http://creativecommons.org/ns#"
   xmlns:rdf="http://www.w3.org/1999/02/22-rdf-syntax-ns#"
   xmlns:svg="http://www.w3.org/2000/svg"
   xmlns="http://www.w3.org/2000/svg"
   xmlns:sodipodi="http://sodipodi.sourceforge.net/DTD/sodipodi-0.dtd"
   xmlns:inkscape="http://www.inkscape.org/namespaces/inkscape"
   width="82.688675mm"
   height="28.664722mm"
   viewBox="0 0 82.688675 28.664722"
   version="1.1"
   id="svg8"
   inkscape:version="1.0.1 (3bc2e813f5, 2020-09-07)"
   sodipodi:docname="logo.svg">
  <defs
     id="defs2">
    <rect
       x="68.688271"
       y="82.853554"
       width="67.351921"
       height="25.657873"
       id="rect841" />
    <rect
       x="33.141422"
       y="62.2738"
       width="40.892242"
       height="12.828938"
       id="rect835" />
  </defs>
  <sodipodi:namedview
     id="base"
     pagecolor="#ffffff"
     bordercolor="#666666"
     borderopacity="1.0"
     inkscape:pageopacity="0.0"
     inkscape:pageshadow="2"
     inkscape:zoom="0.98994949"
     inkscape:cx="126.06172"
     inkscape:cy="140.28111"
     inkscape:document-units="mm"
     inkscape:current-layer="layer1"
     inkscape:document-rotation="0"
     showgrid="false"
     inkscape:window-width="3440"
     inkscape:window-height="1346"
     inkscape:window-x="2293"
     inkscape:window-y="-11"
     inkscape:window-maximized="1" />
  <metadata
     id="metadata5">
    <rdf:RDF>
      <cc:Work
         rdf:about="">
        <dc:format>image/svg+xml</dc:format>
        <dc:type
           rdf:resource="http://purl.org/dc/dcmitype/StillImage" />
        <dc:title></dc:title>
      </cc:Work>
    </rdf:RDF>
  </metadata>
  <g
     inkscape:label="Слой 1"
     inkscape:groupmode="layer"
     id="layer1"
     transform="translate(-33.73329,-63.204768)">
    <g
       aria-label="cyber"
       id="text833"
       style="font-size:10.5833px;line-height:1.25;font-family:New_Zelek;-inkscape-font-specification:New_Zelek;white-space:pre;shape-inside:url(#rect835)">
      <path
         d="m 38.718024,71.205742 h -0.582082 q -1.873244,0 -3.14324,-1.121829 -1.259412,-1.132413 -1.259412,-2.793991 0,-1.650995 1.269996,-2.783408 1.269996,-1.132413 3.132656,-1.132413 h 2.666992 l -2.08491,1.883827 h -0.433915 q -1.047747,0 -1.756828,0.582081 -0.709081,0.582082 -0.709081,1.449913 0,0.857247 0.709081,1.449912 0.719664,0.582081 1.756828,0.582081 h 0.433915 z"
         style="fill:#ff0000"
         id="path854" />
      <path
         d="m 42.623249,66.58084 v -3.376072 l -2.08491,1.883827 v 3.354906 2.762241 h 2.08491 v -1.873244 l 6.487562,-5.958397 h -2.973907 z"
         style="fill:#ff0000"
         id="path856" />
      <path
         d="m 52.910201,66.348008 h -1.820328 v 1.883827 h 1.820328 q 0.243416,0 0.380999,0.148166 0.137583,0.148167 0.137583,0.391582 0,0.232833 -0.137583,0.391583 -0.137583,0.158749 -0.380999,0.158749 h -1.820328 v 1.883827 h 2.21191 q 0.93133,0 1.566328,-0.666747 0.645582,-0.677332 0.645582,-1.767412 0,-0.507998 -0.264583,-0.920747 -0.253999,-0.423332 -0.645581,-0.539748 0.412749,-0.222249 0.656164,-0.603248 0.254,-0.391582 0.254,-0.910164 0,-1.079496 -0.634998,-1.746244 -0.624415,-0.677331 -1.576912,-0.677331 h -2.677575 l -2.08491,1.883827 v 5.947814 h 2.08491 v -5.947814 h 2.285993 q 0.243416,0 0.380999,0.148166 0.137583,0.148166 0.137583,0.391582 0,0.232833 -0.137583,0.391582 -0.137583,0.15875 -0.380999,0.15875 z"
         style="fill:#ff0000"
         id="path858" />
      <path
         d="m 56.635518,71.205742 v -4.857734 -1.09008 l 2.08491,-1.883827 h 5.376316 l -2.08491,1.883827 h -3.291406 v 1.09008 h 3.291406 v 1.883827 h -3.291406 v 1.09008 h 3.291406 v 1.883827 z"
         style="fill:#ff0000"
         id="path860" />
      <path
         d="m 63.832157,71.205742 h 2.08491 v -5.947814 h 0.93133 q 0.645582,0 0.888997,0.296332 0.201083,0.243416 0.201083,0.793748 0,0.476248 -0.328082,0.783164 -0.317499,0.296332 -0.761998,0.296332 h -0.814914 l 4.116904,3.905238 v -2.751658 l -1.068914,-0.93133 q 0.465666,-0.402166 0.613832,-0.592665 0.328082,-0.423332 0.328082,-0.952497 0,-1.460495 -0.804331,-2.11666 -0.751414,-0.613831 -2.360075,-0.613831 h -0.941914 l -2.08491,1.883827 z"
         style="fill:#ff0000"
         id="path862" />
    </g>
    <g
       aria-label="chat"
       transform="translate(-16.83798,-10.423512)"
       id="text839"
       style="font-size:22.5778px;line-height:1.25;font-family:New_Zelek;-inkscape-font-specification:New_Zelek;white-space:pre;shape-inside:url(#rect841)">
      <path
         d="m 80.586001,101.90918 h -1.241779 q -3.996271,0 -6.705607,-2.393247 -2.686758,-2.415825 -2.686758,-5.96054 0,-3.522137 2.709336,-5.937961 2.709336,-2.415825 6.683029,-2.415825 h 5.689606 l -4.447827,4.018848 h -0.92569 q -2.235202,0 -3.747915,1.241779 -1.512712,1.24178 -1.512712,3.093159 0,1.828802 1.512712,3.093159 1.535291,1.241779 3.747915,1.241779 h 0.92569 z"
         style="font-size:22.5778px;fill:#ff0000"
         id="path845" />
      <path
         d="m 88.962338,91.545969 v -6.750763 l -4.447826,4.018849 v 13.095125 h 4.447826 v -6.344363 h 5.644451 v 6.344363 h 4.447826 V 85.201607 h -4.447826 v 6.344362 z"
         style="font-size:22.5778px;fill:#ff0000"
         id="path847" />
      <path
         d="M 112.80449,85.201607 100.43186,96.400196 V 102.293 l 12.37263,-11.153431 v 4.425248 h -3.49956 l -4.4704,4.086582 h 7.96996 v 2.257781 h 4.44783 V 85.201607 Z"
         style="font-size:22.5778px;fill:#ff0000"
         id="path849" />
      <path
         d="m 123.4386,89.220455 v 12.688725 h 4.44783 V 89.220455 h 0.92569 l 4.44783,-4.018848 h -10.04713 l -4.44782,4.018848 z"
         style="font-size:22.5778px;fill:#ff0000"
         id="path851" />
    </g>
  </g>
</svg>
